<?xml version="1.0" encoding="utf-8"?>
<!-- Generator: Adobe Illustrator 16.0.4, SVG Export Plug-In . SVG Version: 6.00 Build 0)  -->
<!DOCTYPE svg PUBLIC "-//W3C//DTD SVG 1.1//EN" "http://www.w3.org/Graphics/SVG/1.1/DTD/svg11.dtd">
<svg version="1.1" id="Layer_1" xmlns="http://www.w3.org/2000/svg" xmlns:xlink="http://www.w3.org/1999/xlink" x="0px" y="0px"
	 width="288.051px" height="288px" viewBox="0 0 288.051 288" enable-background="new 0 0 288.051 288" xml:space="preserve">
<g>
	<defs>
		<path id="SVGID_1_" d="M0,25C0,11.2,11.2,0,25,0h238.051c13.798,0,25,11.2,25,25v238c0,13.85-11.202,25-25,25H25
			c-13.8,0-25-11.15-25-25V25L0,25z"/>
	</defs>
	<clipPath id="SVGID_2_">
		<use xlink:href="#SVGID_1_"  overflow="visible"/>
	</clipPath>
	<g clip-path="url(#SVGID_2_)">
		<path fill="#17316C" d="M402.55,217.71c0-141.45-114.801-256.25-256.25-256.25c-141.451,0-256.25,114.8-256.25,256.25
			c0,141.45,114.799,256.25,256.25,256.25C287.75,473.96,402.55,359.16,402.55,217.71"/>
		<path fill="#18326C" d="M400.373,217.71c0-140.248-113.824-254.073-254.072-254.073c-140.25,0-254.073,113.825-254.073,254.073
			c0,140.249,113.823,254.072,254.073,254.072C286.548,471.782,400.373,357.959,400.373,217.71"/>
		<path fill="#18326D" d="M398.197,217.71c0-139.046-112.85-251.896-251.896-251.896c-139.048,0-251.896,112.85-251.896,251.896
			c0,139.047,112.849,251.896,251.896,251.896C285.347,469.606,398.197,356.757,398.197,217.71"/>
		<path fill="#19336E" d="M396.019,217.71c0-137.845-111.875-249.719-249.718-249.719c-137.846,0-249.72,111.875-249.72,249.719
			c0,137.846,111.874,249.72,249.72,249.72C284.144,467.43,396.019,355.556,396.019,217.71"/>
		<path fill="#19346E" d="M393.843,217.71c0-136.643-110.9-247.542-247.542-247.542c-136.645,0-247.542,110.899-247.542,247.542
			c0,136.644,110.897,247.542,247.542,247.542C282.943,465.252,393.843,354.354,393.843,217.71"/>
		<path fill="#1A346F" d="M391.666,217.71c0-135.441-109.924-245.365-245.365-245.365C10.858-27.655-99.064,82.269-99.064,217.71
			c0,135.442,109.923,245.365,245.365,245.365C281.742,463.075,391.666,353.152,391.666,217.71"/>
		<path fill="#1A3570" d="M389.489,217.71c0-134.24-108.949-243.188-243.188-243.188C12.06-25.479-96.888,83.47-96.888,217.71
			c0,134.24,108.947,243.188,243.188,243.188C280.54,460.897,389.489,351.95,389.489,217.71"/>
		<path fill="#1B3670" d="M387.312,217.71c0-133.038-107.974-241.012-241.011-241.012C13.262-23.302-94.711,84.672-94.711,217.71
			S13.262,458.721,146.301,458.721C279.338,458.721,387.312,350.748,387.312,217.71"/>
		<path fill="#1B3671" d="M385.135,217.71c0-131.836-106.999-238.834-238.834-238.834C14.463-21.124-92.533,85.874-92.533,217.71
			c0,131.837,106.996,238.835,238.834,238.835C278.136,456.545,385.135,349.547,385.135,217.71"/>
		<path fill="#1C3772" d="M382.958,217.71c0-130.635-106.023-236.657-236.658-236.657C15.665-18.947-90.356,87.075-90.356,217.71
			S15.665,454.367,146.301,454.367C276.935,454.367,382.958,348.345,382.958,217.71"/>
		<path fill="#1C3872" d="M380.781,217.71c0-129.433-105.047-234.481-234.48-234.481C16.866-16.771-88.18,88.277-88.18,217.71
			c0,129.434,105.046,234.48,234.48,234.48C275.734,452.19,380.781,347.144,380.781,217.71"/>
		<path fill="#1D3873" d="M378.605,217.71c0-128.231-104.073-232.304-232.304-232.304C18.068-14.594-86.003,89.479-86.003,217.71
			S18.068,450.014,146.301,450.014C274.532,450.014,378.605,345.941,378.605,217.71"/>
		<path fill="#1D3974" d="M376.427,217.71c0-127.029-103.097-230.126-230.126-230.126c-127.03,0-230.127,103.097-230.127,230.126
			c0,127.03,103.097,230.127,230.127,230.127C273.331,447.837,376.427,344.74,376.427,217.71"/>
		<path fill="#1E3A74" d="M374.251,217.71c0-125.828-102.124-227.95-227.951-227.95c-125.83,0-227.949,102.122-227.949,227.95
			S20.471,445.66,146.301,445.66C272.127,445.66,374.251,343.538,374.251,217.71"/>
		<path fill="#1E3B75" d="M372.073,217.71c0-124.626-101.146-225.773-225.772-225.773C21.673-8.063-79.473,93.083-79.473,217.71
			c0,124.627,101.146,225.772,225.773,225.772C270.926,443.482,372.073,342.337,372.073,217.71"/>
		<path fill="#1F3B76" d="M369.896,217.71c0-123.425-100.17-223.596-223.595-223.596C22.875-5.886-77.296,94.285-77.296,217.71
			S22.875,441.306,146.301,441.306C269.726,441.306,369.896,341.135,369.896,217.71"/>
		<path fill="#1F3C76" d="M367.72,217.71c0-122.223-99.197-221.419-221.419-221.419C24.076-3.709-75.118,95.487-75.118,217.71
			c0,122.224,99.194,221.419,221.419,221.419C268.523,439.129,367.72,339.934,367.72,217.71"/>
		<path fill="#203D77" d="M365.542,217.71c0-121.021-98.221-219.242-219.242-219.242C25.278-1.532-72.941,96.688-72.941,217.71
			s98.22,219.242,219.242,219.242C267.322,436.952,365.542,338.731,365.542,217.71"/>
		<path fill="#213D78" d="M363.367,217.71c0-119.82-97.246-217.065-217.066-217.065C26.479,0.645-70.765,97.89-70.765,217.71
			c0,119.819,97.244,217.065,217.065,217.065C266.121,434.775,363.367,337.529,363.367,217.71"/>
		<path fill="#213E78" d="M361.189,217.71c0-118.618-96.271-214.889-214.888-214.889C27.682,2.821-68.588,99.092-68.588,217.71
			s96.27,214.889,214.889,214.889C264.917,432.599,361.189,336.328,361.189,217.71"/>
		<path fill="#223F79" d="M359.013,217.71c0-117.416-95.297-212.711-212.712-212.711C28.883,4.999-66.41,100.294-66.41,217.71
			c0,117.417,95.293,212.712,212.711,212.712C263.716,430.422,359.013,335.127,359.013,217.71"/>
		<path fill="#223F7A" d="M356.834,217.71c0-116.215-94.319-210.535-210.534-210.535c-116.216,0-210.534,94.32-210.534,210.535
			c0,116.216,94.318,210.534,210.534,210.534C262.515,428.244,356.834,333.926,356.834,217.71"/>
		<path fill="#23407A" d="M354.658,217.71c0-115.013-93.346-208.358-208.357-208.358c-115.015,0-208.357,93.345-208.357,208.358
			c0,115.014,93.343,208.357,208.357,208.357C261.312,426.067,354.658,332.724,354.658,217.71"/>
		<path fill="#23417B" d="M352.481,217.71c0-113.812-92.37-206.181-206.18-206.181c-113.812,0-206.182,92.369-206.182,206.181
			c0,113.812,92.369,206.181,206.182,206.181C260.111,423.891,352.481,331.522,352.481,217.71"/>
		<path fill="#24417C" d="M350.305,217.711c0-112.61-91.396-204.004-204.004-204.004c-112.611,0-204.004,91.394-204.004,204.004
			c0,112.609,91.393,204.003,204.004,204.003C258.91,421.714,350.305,330.32,350.305,217.711"/>
		<path fill="#25427C" d="M348.127,217.71c0-111.408-90.418-201.827-201.827-201.827c-111.41,0-201.827,90.419-201.827,201.827
			c0,111.409,90.417,201.827,201.827,201.827C257.709,419.537,348.127,329.119,348.127,217.71"/>
		<path fill="#25437D" d="M345.951,217.71c0-110.207-89.444-199.65-199.65-199.65c-110.208,0-199.65,89.444-199.65,199.65
			c0,110.207,89.442,199.649,199.65,199.649C256.506,417.359,345.951,327.917,345.951,217.71"/>
		<path fill="#26437E" d="M343.773,217.71c0-109.005-88.468-197.474-197.472-197.474c-109.006,0-197.474,88.469-197.474,197.474
			s88.468,197.474,197.474,197.474C255.305,415.184,343.773,326.715,343.773,217.71"/>
		<path fill="#26447F" d="M341.597,217.71c0-107.803-87.494-195.296-195.296-195.296c-107.805,0-195.296,87.493-195.296,195.296
			c0,107.804,87.491,195.297,195.296,195.297C254.103,413.007,341.597,325.514,341.597,217.71"/>
		<path fill="#27457F" d="M339.419,217.71c0-106.602-86.518-193.119-193.119-193.119c-106.603,0-193.119,86.518-193.119,193.119
			c0,106.603,86.517,193.119,193.119,193.119C252.902,410.829,339.419,324.312,339.419,217.71"/>
		<path fill="#274680" d="M337.243,217.709c0-105.399-85.542-190.941-190.942-190.941c-105.401,0-190.942,85.542-190.942,190.941
			c0,105.401,85.541,190.943,190.942,190.943C251.701,408.652,337.243,323.11,337.243,217.709"/>
		<path fill="#284681" d="M335.066,217.71c0-104.198-84.566-188.766-188.765-188.766c-104.199,0-188.766,84.567-188.766,188.766
			s84.566,188.766,188.766,188.766C250.5,406.476,335.066,321.908,335.066,217.71"/>
		<path fill="#294781" d="M332.889,217.71c0-102.996-83.592-186.588-186.588-186.588c-102.998,0-186.589,83.592-186.589,186.588
			c0,102.997,83.591,186.589,186.589,186.589C249.297,404.299,332.889,320.707,332.889,217.71"/>
		<path fill="#294882" d="M330.712,217.71c0-101.795-82.617-184.412-184.412-184.412c-101.796,0-184.412,82.617-184.412,184.412
			c0,101.796,82.616,184.411,184.412,184.411C248.095,402.121,330.712,319.506,330.712,217.71"/>
		<path fill="#2A4883" d="M328.535,217.71c0-100.593-81.642-182.235-182.234-182.235c-100.595,0-182.235,81.642-182.235,182.235
			c0,100.594,81.641,182.234,182.235,182.234C246.893,399.944,328.535,318.304,328.535,217.71"/>
		<path fill="#2A4984" d="M326.359,217.71c0-99.392-80.666-180.058-180.058-180.058c-99.393,0-180.059,80.667-180.059,180.058
			s80.666,180.058,180.059,180.058C245.693,397.768,326.359,317.102,326.359,217.71"/>
		<path fill="#2B4A84" d="M324.181,217.71c0-98.189-79.691-177.881-177.88-177.881c-98.191,0-177.881,79.691-177.881,177.881
			c0,98.19,79.689,177.881,177.881,177.881C244.49,395.591,324.181,315.9,324.181,217.71"/>
		<path fill="#2B4B85" d="M322.005,217.71c0-96.988-78.717-175.704-175.705-175.704c-96.99,0-175.704,78.716-175.704,175.704
			c0,96.989,78.714,175.704,175.704,175.704C243.289,393.414,322.005,314.699,322.005,217.71"/>
		<path fill="#2C4B86" d="M319.828,217.71c0-95.787-77.74-173.527-173.527-173.527c-95.788,0-173.527,77.741-173.527,173.527
			c0,95.787,77.739,173.526,173.527,173.526C242.087,391.236,319.828,313.497,319.828,217.71"/>
		<path fill="#2C4C87" d="M317.651,217.71c0-94.585-76.767-171.351-171.35-171.351c-94.586,0-171.351,76.766-171.351,171.351
			c0,94.586,76.765,171.351,171.351,171.351C240.884,389.061,317.651,312.296,317.651,217.71"/>
		<path fill="#2D4D87" d="M315.474,217.71c0-93.383-75.79-169.173-169.173-169.173c-93.385,0-169.174,75.79-169.174,169.173
			c0,93.384,75.789,169.173,169.174,169.173C239.684,386.883,315.474,311.094,315.474,217.71"/>
		<path fill="#2E4D88" d="M313.297,217.71c0-92.182-74.815-166.996-166.997-166.996c-92.183,0-166.997,74.814-166.997,166.996
			c0,92.183,74.814,166.996,166.997,166.996C238.482,384.706,313.297,309.893,313.297,217.71"/>
		<path fill="#2E4E89" d="M311.119,217.709c0-90.979-73.838-164.819-164.818-164.819c-90.981,0-164.82,73.839-164.82,164.819
			c0,90.981,73.839,164.82,164.82,164.82C237.281,382.529,311.119,308.69,311.119,217.709"/>
		<path fill="#2F4F8A" d="M308.943,217.71c0-89.778-72.865-162.643-162.642-162.643c-89.779,0-162.643,72.864-162.643,162.643
			c0,89.779,72.863,162.643,162.643,162.643C236.078,380.353,308.943,307.489,308.943,217.71"/>
		<path fill="#2F4F8A" d="M306.767,217.711c0-88.577-71.891-160.466-160.466-160.466c-88.577,0-160.466,71.889-160.466,160.466
			c0,88.576,71.889,160.465,160.466,160.465C234.876,378.176,306.767,306.287,306.767,217.711"/>
		<path fill="#30508B" d="M304.589,217.71c0-87.375-70.913-158.289-158.289-158.289c-87.377,0-158.289,70.914-158.289,158.289
			c0,87.376,70.912,158.289,158.289,158.289C233.676,375.999,304.589,305.086,304.589,217.71"/>
		<path fill="#30518C" d="M302.412,217.71c0-86.174-69.938-156.112-156.111-156.112c-86.175,0-156.112,69.938-156.112,156.112
			s69.938,156.111,156.112,156.111C232.473,373.821,302.412,303.884,302.412,217.71"/>
		<path fill="#31528D" d="M300.235,217.71c0-84.972-68.963-153.935-153.934-153.935c-84.973,0-153.936,68.963-153.936,153.935
			c0,84.973,68.963,153.935,153.936,153.935C231.272,371.645,300.235,302.683,300.235,217.71"/>
		<path fill="#32528D" d="M298.058,217.71c0-83.77-67.988-151.758-151.757-151.758C62.529,65.952-5.457,133.94-5.457,217.71
			c0,83.771,67.986,151.759,151.758,151.759C230.07,369.469,298.058,301.48,298.058,217.71"/>
		<path fill="#32538E" d="M295.881,217.71c0-82.568-67.013-149.581-149.581-149.581c-82.57,0-149.582,67.013-149.582,149.581
			c0,82.569,67.012,149.581,149.582,149.581C228.869,367.291,295.881,300.279,295.881,217.71"/>
		<path fill="#33548F" d="M293.706,217.71c0-81.367-66.038-147.404-147.405-147.404c-81.368,0-147.404,66.037-147.404,147.404
			s66.036,147.403,147.404,147.403C227.667,365.113,293.706,299.077,293.706,217.71"/>
		<path fill="#335490" d="M291.529,217.71c0-80.165-65.062-145.228-145.228-145.228c-80.166,0-145.228,65.062-145.228,145.228
			s65.062,145.228,145.228,145.228C226.466,362.938,291.529,297.875,291.529,217.71"/>
		<path fill="#345590" d="M289.351,217.71c0-78.963-64.087-143.05-143.05-143.05C67.336,74.66,3.25,138.747,3.25,217.71
			c0,78.964,64.086,143.05,143.051,143.05C225.264,360.76,289.351,296.674,289.351,217.71"/>
		<path fill="#345691" d="M287.173,217.71c0-77.762-63.111-140.874-140.873-140.874c-77.763,0-140.874,63.112-140.874,140.874
			c0,77.763,63.111,140.874,140.874,140.874C224.062,358.584,287.173,295.473,287.173,217.71"/>
		<path fill="#355792" d="M284.998,217.71c0-76.561-62.137-138.696-138.697-138.696c-76.562,0-138.697,62.136-138.697,138.696
			s62.136,138.696,138.697,138.696C222.861,356.406,284.998,294.271,284.998,217.71"/>
		<path fill="#365793" d="M282.82,217.71c0-75.358-61.16-136.52-136.519-136.52C70.941,81.19,9.78,142.352,9.78,217.71
			c0,75.359,61.161,136.52,136.521,136.52C221.66,354.229,282.82,293.069,282.82,217.71"/>
		<path fill="#365894" d="M280.643,217.71c0-74.157-60.187-134.343-134.342-134.343c-74.158,0-134.344,60.186-134.344,134.343
			c0,74.157,60.186,134.343,134.344,134.343C220.457,352.053,280.643,291.867,280.643,217.71"/>
		<path fill="#375994" d="M278.466,217.71c0-72.955-59.211-132.166-132.166-132.166c-72.956,0-132.166,59.211-132.166,132.166
			c0,72.956,59.21,132.166,132.166,132.166C219.255,349.876,278.466,290.666,278.466,217.71"/>
		<path fill="#375A95" d="M276.289,217.71c0-71.754-58.233-129.989-129.988-129.989c-71.755,0-129.989,58.235-129.989,129.989
			c0,71.755,58.234,129.989,129.989,129.989C218.055,347.699,276.289,289.465,276.289,217.71"/>
		<path fill="#385A96" d="M274.113,217.71c0-70.552-57.261-127.812-127.812-127.812c-70.553,0-127.812,57.26-127.812,127.812
			c0,70.553,57.26,127.812,127.812,127.812C216.852,345.521,274.113,288.263,274.113,217.71"/>
		<path fill="#395B97" d="M271.935,217.71c0-69.351-56.284-125.635-125.634-125.635c-69.352,0-125.636,56.284-125.636,125.635
			s56.284,125.635,125.636,125.635C215.651,343.345,271.935,287.061,271.935,217.71"/>
		<path fill="#395C97" d="M269.759,217.71c0-68.148-55.311-123.458-123.458-123.458c-68.15,0-123.459,55.31-123.459,123.458
			c0,68.149,55.309,123.458,123.459,123.458C214.449,341.168,269.759,285.859,269.759,217.71"/>
		<path fill="#3A5C98" d="M267.582,217.71c0-66.947-54.334-121.281-121.281-121.281c-66.948,0-121.281,54.334-121.281,121.281
			c0,66.948,54.333,121.281,121.281,121.281C213.248,338.991,267.582,284.658,267.582,217.71"/>
		<path fill="#3A5D99" d="M265.406,217.71c0-65.745-53.359-119.104-119.105-119.104c-65.746,0-119.105,53.359-119.105,119.104
			c0,65.746,53.359,119.104,119.105,119.104C212.046,336.814,265.406,283.456,265.406,217.71"/>
		<path fill="#3B5E9A" d="M263.228,217.71c0-64.544-52.385-116.928-116.927-116.928c-64.545,0-116.928,52.384-116.928,116.928
			c0,64.545,52.383,116.927,116.928,116.927C210.843,334.637,263.228,282.255,263.228,217.71"/>
		<path fill="#3B5F9B" d="M261.051,217.71c0-63.342-51.408-114.75-114.75-114.75c-63.344,0-114.751,51.409-114.751,114.75
			c0,63.343,51.407,114.751,114.751,114.751C209.643,332.461,261.051,281.053,261.051,217.71"/>
		<path fill="#3C5F9B" d="M258.875,217.71c0-62.141-50.434-112.574-112.574-112.574c-62.142,0-112.574,50.433-112.574,112.574
			c0,62.142,50.433,112.573,112.574,112.573C208.441,330.283,258.875,279.852,258.875,217.71"/>
		<path fill="#3D609C" d="M256.697,217.71c0-60.938-49.458-110.396-110.396-110.396c-60.939,0-110.397,49.458-110.397,110.396
			c0,60.939,49.458,110.396,110.397,110.396C207.239,328.106,256.697,278.649,256.697,217.71"/>
		<path fill="#3D619D" d="M254.521,217.71c0-59.737-48.484-108.22-108.22-108.22c-59.738,0-108.221,48.482-108.221,108.22
			c0,59.738,48.482,108.22,108.221,108.22C206.037,325.93,254.521,277.448,254.521,217.71"/>
		<path fill="#3E629E" d="M252.343,217.71c0-58.535-47.508-106.043-106.042-106.043c-58.536,0-106.044,47.508-106.044,106.043
			c0,58.536,47.508,106.043,106.044,106.043C204.835,323.753,252.343,276.246,252.343,217.71"/>
		<path fill="#3E629F" d="M250.167,217.71c0-57.334-46.533-103.866-103.867-103.866c-57.335,0-103.867,46.532-103.867,103.866
			s46.532,103.866,103.867,103.866C203.634,321.576,250.167,275.044,250.167,217.71"/>
		<path fill="#3F63A0" d="M247.99,217.71c0-56.132-45.557-101.689-101.689-101.689c-56.133,0-101.689,45.558-101.689,101.689
			c0,56.133,45.557,101.689,101.689,101.689C202.433,319.399,247.99,273.843,247.99,217.71"/>
		<path fill="#4064A1" d="M245.812,217.71c0-54.931-44.581-99.513-99.511-99.513c-54.932,0-99.514,44.582-99.514,99.513
			s44.582,99.512,99.514,99.512C201.231,317.222,245.812,272.641,245.812,217.71"/>
		<path fill="#4065A1" d="M243.636,217.71c0-53.729-43.607-97.335-97.335-97.335c-53.73,0-97.336,43.606-97.336,97.335
			s43.605,97.335,97.336,97.335C200.029,315.045,243.636,271.439,243.636,217.71"/>
		<path fill="#4165A2" d="M241.459,217.71c0-52.527-42.632-95.159-95.159-95.159c-52.528,0-95.159,42.631-95.159,95.159
			c0,52.528,42.631,95.159,95.159,95.159C198.828,312.869,241.459,270.238,241.459,217.71"/>
		<path fill="#4166A3" d="M239.282,217.71c0-51.325-41.655-92.981-92.981-92.981c-51.326,0-92.982,41.656-92.982,92.981
			c0,51.326,41.656,92.981,92.982,92.981C197.626,310.691,239.282,269.036,239.282,217.71"/>
		<path fill="#4267A4" d="M237.105,217.71c0-50.124-40.68-90.805-90.804-90.805c-50.125,0-90.806,40.681-90.806,90.805
			s40.681,90.805,90.806,90.805C196.425,308.515,237.105,267.834,237.105,217.71"/>
		<path fill="#4368A5" d="M234.929,217.71c0-48.923-39.707-88.627-88.628-88.627c-48.924,0-88.629,39.705-88.629,88.627
			s39.705,88.628,88.629,88.628C195.222,306.338,234.929,266.633,234.929,217.71"/>
		<path fill="#4369A6" d="M232.751,217.71c0-47.721-38.729-86.451-86.451-86.451c-47.722,0-86.451,38.73-86.451,86.451
			c0,47.722,38.729,86.451,86.451,86.451C194.022,304.161,232.751,265.432,232.751,217.71"/>
		<path fill="#4469A6" d="M230.576,217.71c0-46.519-37.757-84.274-84.275-84.274c-46.521,0-84.274,37.755-84.274,84.274
			c0,46.52,37.754,84.274,84.274,84.274C192.819,301.984,230.576,264.229,230.576,217.71"/>
		<path fill="#446AA7" d="M228.398,217.71c0-45.317-36.78-82.097-82.097-82.097c-45.318,0-82.098,36.779-82.098,82.097
			c0,45.318,36.779,82.097,82.098,82.097C191.618,299.807,228.398,263.028,228.398,217.71"/>
		<path fill="#456BA8" d="M226.22,217.71c0-44.116-35.804-79.92-79.919-79.92c-44.116,0-79.921,35.804-79.921,79.92
			s35.805,79.92,79.921,79.92C190.417,297.63,226.22,261.826,226.22,217.71"/>
		<path fill="#466CA9" d="M224.043,217.71c0-42.914-34.829-77.743-77.743-77.743c-42.915,0-77.744,34.829-77.744,77.743
			c0,42.915,34.829,77.743,77.744,77.743C189.214,295.453,224.043,260.625,224.043,217.71"/>
		<path fill="#466CAA" d="M221.868,217.71c0-41.712-33.854-75.566-75.567-75.566c-41.713,0-75.566,33.854-75.566,75.566
			c0,41.713,33.854,75.566,75.566,75.566C188.014,293.276,221.868,259.423,221.868,217.71"/>
		<path fill="#476DAB" d="M219.69,217.71c0-40.511-32.878-73.39-73.389-73.39c-40.512,0-73.391,32.879-73.391,73.39
			c0,40.512,32.879,73.39,73.391,73.39C186.812,291.1,219.69,258.222,219.69,217.71"/>
		<path fill="#476EAC" d="M217.513,217.71c0-39.31-31.903-71.213-71.212-71.213c-39.31,0-71.214,31.903-71.214,71.213
			s31.904,71.212,71.214,71.212C185.61,288.922,217.513,257.02,217.513,217.71"/>
		<path fill="#486FAD" d="M215.335,217.71c0-38.107-30.928-69.036-69.035-69.036c-38.108,0-69.036,30.929-69.036,69.036
			c0,38.108,30.928,69.035,69.036,69.035C184.408,286.745,215.335,255.818,215.335,217.71"/>
		<path fill="#4970AE" d="M213.16,217.71c0-36.905-29.953-66.858-66.859-66.858c-36.906,0-66.859,29.953-66.859,66.858
			c0,36.907,29.953,66.858,66.859,66.858C183.207,284.568,213.16,254.617,213.16,217.71"/>
		<path fill="#4970AF" d="M210.982,217.71c0-35.704-28.977-64.682-64.681-64.682c-35.705,0-64.683,28.978-64.683,64.682
			c0,35.705,28.978,64.682,64.683,64.682C182.005,282.392,210.982,253.415,210.982,217.71"/>
		<path fill="#4A71AF" d="M208.805,217.71c0-34.503-28.003-62.505-62.504-62.505c-34.504,0-62.506,28.002-62.506,62.505
			s28.002,62.505,62.506,62.505C180.802,280.215,208.805,252.213,208.805,217.71"/>
		<path fill="#4A72B0" d="M206.628,217.71c0-33.301-27.027-60.328-60.328-60.328c-33.302,0-60.329,27.027-60.329,60.328
			c0,33.302,27.027,60.328,60.329,60.328C179.601,278.038,206.628,251.012,206.628,217.71"/>
		<path fill="#4B73B1" d="M204.452,217.71c0-32.099-26.052-58.151-58.151-58.151c-32.101,0-58.151,26.053-58.151,58.151
			c0,32.1,26.051,58.151,58.151,58.151C178.4,275.861,204.452,249.81,204.452,217.71"/>
		<path fill="#4C74B2" d="M202.275,217.71c0-30.897-25.077-55.975-55.974-55.975c-30.898,0-55.975,25.077-55.975,55.975
			c0,30.898,25.076,55.975,55.975,55.975C177.198,273.685,202.275,248.608,202.275,217.71"/>
		<path fill="#4C75B3" d="M200.097,217.71c0-29.696-24.101-53.798-53.796-53.798c-29.697,0-53.799,24.102-53.799,53.798
			s24.102,53.797,53.799,53.797C175.997,271.507,200.097,247.406,200.097,217.71"/>
		<path fill="#4D75B5" d="M197.921,217.71c0-28.494-23.127-51.62-51.621-51.62c-28.495,0-51.621,23.126-51.621,51.62
			c0,28.495,23.126,51.62,51.621,51.62C174.794,269.33,197.921,246.205,197.921,217.71"/>
		<path fill="#4D76B6" d="M195.744,217.71c0-27.292-22.15-49.443-49.443-49.443c-27.294,0-49.444,22.151-49.444,49.443
			c0,27.293,22.15,49.443,49.444,49.443C173.593,267.153,195.744,245.003,195.744,217.71"/>
		<path fill="#4E77B7" d="M193.568,217.71c0-26.091-21.176-47.267-47.267-47.267c-26.092,0-47.268,21.176-47.268,47.267
			c0,26.092,21.176,47.267,47.268,47.267C172.392,264.977,193.568,243.802,193.568,217.71"/>
		<path fill="#4F78B8" d="M191.39,217.71c0-24.89-20.201-45.09-45.089-45.09c-24.89,0-45.091,20.2-45.091,45.09
			s20.201,45.09,45.091,45.09C171.189,262.8,191.39,242.6,191.39,217.71"/>
		<path fill="#4F79B9" d="M189.213,217.71c0-23.688-19.225-42.913-42.913-42.913c-23.688,0-42.914,19.226-42.914,42.913
			c0,23.688,19.226,42.912,42.914,42.912C169.989,260.622,189.213,241.398,189.213,217.71"/>
		<path fill="#507ABB" d="M187.037,217.71c0-22.485-18.25-40.735-40.736-40.735c-22.486,0-40.737,18.25-40.737,40.735
			c0,22.486,18.251,40.735,40.737,40.735C168.787,258.445,187.037,240.196,187.037,217.71"/>
		<path fill="#517BBC" d="M184.86,217.71c0-21.284-17.275-38.559-38.559-38.559c-21.285,0-38.56,17.274-38.56,38.559
			c0,21.285,17.274,38.559,38.56,38.559C167.584,256.269,184.86,238.995,184.86,217.71"/>
		<path fill="#517CBE" d="M182.683,217.71c0-20.083-16.301-36.382-36.382-36.382c-20.084,0-36.383,16.299-36.383,36.382
			c0,20.084,16.299,36.382,36.383,36.382C166.382,254.092,182.683,237.794,182.683,217.71"/>
		<path fill="#527DBF" d="M180.505,217.71c0-18.881-15.324-34.205-34.205-34.205c-18.882,0-34.206,15.324-34.206,34.205
			c0,18.882,15.324,34.205,34.206,34.205C165.181,251.915,180.505,236.592,180.505,217.71"/>
	</g>
</g>
<path opacity="0.2" fill="#FFFFFF" d="M0,123.885c39.926,14.965,89.969,23.865,144.301,23.865c54.071,0,103.909-8.819,143.75-23.664
	V25c0-13.8-11.202-25-25-25H25C11.2,0,0,11.2,0,25V123.885L0,123.885z"/>
<path fill="#FFFFFF" d="M133.801,102.75h27V90.501v-12V76.5c0-11.55,0.298-29.4,8.698-40.449c8.85-11.702,21-19.65,41.901-19.65
	c34.048,0,48.4,4.849,48.4,4.849l-6.75,40.001c0,0-11.25-3.251-21.75-3.251s-19.9,3.75-19.9,14.25v4.25v14.001v12.249h43.048
	l-3,39.05h-40.048v135.7h-50.6V141.8h-27V102.75L133.801,102.75z"/>
<path opacity="0.2" fill="#FFFFFF" d="M8.301,231.5c0-11,8.949-20,20-20h230c11,0,20,9,20,20v26.05c0,11.05-9,20-20,20h-230
	c-11.051,0-20-8.95-20-20V231.5L8.301,231.5z"/>
</svg>
