<?xml version="1.0" encoding="UTF-8" standalone="no"?>
<!-- Created with Inkscape (http://www.inkscape.org/) -->

<svg
   xmlns:dc="http://purl.org/dc/elements/1.1/"
   xmlns:cc="http://creativecommons.org/ns#"
   xmlns:rdf="http://www.w3.org/1999/02/22-rdf-syntax-ns#"
   xmlns:svg="http://www.w3.org/2000/svg"
   xmlns="http://www.w3.org/2000/svg"
   xmlns:inkscape="http://www.inkscape.org/namespaces/inkscape"
   version="1.1"
   width="57"
   height="17"
   id="svg2"
   xml:space="preserve"><metadata
     id="metadata8"><rdf:RDF><cc:Work
         rdf:about=""><dc:format>image/svg+xml</dc:format><dc:type
           rdf:resource="http://purl.org/dc/dcmitype/StillImage" /></cc:Work></rdf:RDF></metadata><defs
     id="defs6" /><g
     transform="matrix(1.25,0,0,-1.25,0,16.9625)"
     id="g10"><g
       transform="scale(0.1,0.1)"
       id="g12"><path
         d="m 99.3867,118.805 c -22.6172,22.441 -59.3672,22.531 -82.1015,0.258 l -0.2657,-0.266 C -5.67969,96.2617 -5.67188,59.5977 17.0313,37.0703 L 52.0977,2.27734 C 53.6289,0.757813 55.6367,0 57.6406,0 c 2.0039,0 4.0157,0.757813 5.5469,2.27734 3.0547,3.03907 3.0547,7.96486 0,10.99996 L 28.1133,48.0742 C 11.5742,64.4883 11.5195,91.1719 27.957,107.652 l 0.1641,0.157 c 16.5937,16.457 43.5898,16.453 60.1758,-0.008 13.6211,-13.5158 15.5741,-36.6447 4.539,-53.8088 -2.3281,-3.6211 -1.2578,-8.4297 2.3907,-10.7422 3.6562,-2.3164 8.4964,-1.2461 10.8244,2.3711 15.14,23.5508 12.34,54.3242 -6.6643,73.1839 M 85.3516,35.2852 c 3.0586,-3.0352 3.0625,-7.9649 0,-11 -1.5274,-1.5196 -3.5352,-2.2813 -5.5352,-2.2813 -2.0117,0 -4.0195,0.7617 -5.5508,2.2774 L 39.1992,59.0781 c -10.4765,10.3985 -10.4765,27.3242 0,37.7227 5.0742,5.0352 11.8242,7.8082 19,7.8082 l 0.0078,0 c 7.1758,0 13.9258,-2.777 19,-7.8199 6.9883,-6.9336 9.5743,-17.0899 6.7461,-26.5039 -1.2461,-4.1172 -5.6054,-6.461 -9.7578,-5.2305 -4.1484,1.2305 -6.5078,5.5625 -5.2734,9.6836 1.1836,3.9219 0.1094,8.1601 -2.8047,11.0508 -2.1133,2.1015 -4.9219,3.2578 -7.9141,3.2617 l -0.0039,0 c -2.9922,0 -5.7969,-1.1563 -7.914,-3.2539 -4.3672,-4.3321 -4.3672,-11.3828 0,-15.7149 L 85.3516,35.2852"
         inkscape:connector-curvature="0"
         id="path14"
         style="fill:#000;fill-opacity:1;fill-rule:nonzero;stroke:none" /><path
         d="m 204.012,85.8242 c 0,4.6914 -1.36,8.2969 -4.082,10.8086 -2.727,2.5156 -6.559,3.7732 -11.5,3.7732 l -14.453,0 0,-31.5466 13.07,0 c 5.195,0 9.32,1.5078 12.379,4.5234 3.058,3.0156 4.586,7.1641 4.586,12.4414 z m 13.828,0.1289 c 0,-9.0508 -2.66,-16.0898 -7.981,-21.1172 -5.324,-5.0273 -12.632,-7.539 -21.933,-7.539 l -13.949,0 0,-34.5625 -13.829,0 0,89.2346 28.032,0 c 9.883,0 17.3,-2.199 22.246,-6.598 4.941,-4.402 7.414,-10.8749 7.414,-19.4179"
         inkscape:connector-curvature="0"
         id="path16"
         style="fill:#000;fill-opacity:1;fill-rule:nonzero;stroke:none" /><path
         d="m 254.535,32.5352 c 5.699,0 10.141,2.1367 13.324,6.4101 3.184,4.2735 4.778,10.4336 4.778,18.4766 0,8.125 -1.551,14.3281 -4.653,18.6015 -3.101,4.2735 -7.582,6.4102 -13.449,6.4102 -5.863,0 -10.347,-2.1172 -13.445,-6.3477 -3.102,-4.2343 -4.652,-10.4531 -4.652,-18.664 0,-7.8789 1.574,-13.9961 4.714,-18.3516 3.141,-4.3555 7.606,-6.5351 13.383,-6.5351 z m 0,-11.0586 c -10.137,0 -17.992,3.1836 -23.562,9.5507 -5.575,6.3672 -8.36,15.1641 -8.36,26.3946 0,11.3125 2.809,20.1484 8.422,26.5195 5.61,6.3672 13.449,9.5508 23.5,9.5508 10.059,0 17.891,-3.1836 23.504,-9.5508 5.613,-6.3711 8.422,-15.207 8.422,-26.5195 0,-11.3985 -2.809,-20.2344 -8.422,-26.5196 -5.613,-6.2851 -13.445,-9.4257 -23.504,-9.4257"
         inkscape:connector-curvature="0"
         id="path18"
         style="fill:#000;fill-opacity:1;fill-rule:nonzero;stroke:none" /><path
         d="m 307.074,56.793 c 0,-8.2149 1.336,-14.3282 4.02,-18.3516 2.679,-4.0195 6.828,-6.0312 12.441,-6.0312 2.77,0 5.68,0.6054 8.738,1.8242 3.055,1.2109 5.59,2.6562 7.602,4.3359 l 0,39.5899 c -5.445,3.0156 -10.516,4.5234 -15.207,4.5234 -3.352,0 -6.391,-1.0469 -9.113,-3.1406 -2.723,-2.0977 -4.817,-5.1133 -6.282,-9.0508 -1.468,-3.9375 -2.199,-8.5039 -2.199,-13.6992 z M 293.5,56.543 c 0,7.457 1.215,13.9687 3.645,19.5429 2.429,5.5704 5.863,9.8672 10.304,12.8829 4.442,3.0156 9.469,4.5234 15.082,4.5234 6.367,0 12.149,-1.5078 17.344,-4.5234 l 0,30.2892 13.07,0 0,-96.5236 -10.179,0 -2.137,5.9062 c -6.117,-4.7773 -12.82,-7.164 -20.109,-7.164 -9.133,0 -15.918,2.9101 -20.36,8.7343 -4.441,5.8243 -6.66,14.5977 -6.66,26.3321"
         inkscape:connector-curvature="0"
         id="path20"
         style="fill:#000;fill-opacity:1;fill-rule:nonzero;stroke:none" /><path
         d="m 367.023,22.7344 0,69.5 13.071,0 0,-69.5 -13.071,0 z m -1.132,88.6056 c 0,2.094 0.754,3.914 2.261,5.469 1.508,1.546 3.309,2.324 5.407,2.324 2.093,0 3.894,-0.754 5.406,-2.262 1.508,-1.512 2.262,-3.355 2.262,-5.531 0,-2.098 -0.739,-3.879 -2.2,-5.344 -1.468,-1.465 -3.293,-2.199 -5.468,-2.199 -2.098,0 -3.899,0.754 -5.407,2.262 -1.507,1.511 -2.261,3.269 -2.261,5.281"
         inkscape:connector-curvature="0"
         id="path22"
         style="fill:#000;fill-opacity:1;fill-rule:nonzero;stroke:none" /><path
         d="m 423.074,32.5352 c 5.699,0 10.141,2.1367 13.324,6.4101 3.184,4.2735 4.778,10.4336 4.778,18.4766 0,8.125 -1.555,14.3281 -4.653,18.6015 -3.097,4.2735 -7.582,6.4102 -13.449,6.4102 -5.863,0 -10.347,-2.1172 -13.445,-6.3477 -3.102,-4.2343 -4.652,-10.4531 -4.652,-18.664 0,-7.8789 1.574,-13.9961 4.714,-18.3516 3.145,-4.3555 7.606,-6.5351 13.383,-6.5351 z m 0,-11.0586 c -10.136,0 -17.992,3.1836 -23.562,9.5507 -5.574,6.3672 -8.36,15.1641 -8.36,26.3946 0,11.3125 2.809,20.1484 8.422,26.5195 5.614,6.3672 13.449,9.5508 23.5,9.5508 10.059,0 17.891,-3.1836 23.504,-9.5508 5.613,-6.3711 8.422,-15.207 8.422,-26.5195 0,-11.3985 -2.809,-20.2344 -8.422,-26.5196 -5.613,-6.2851 -13.445,-9.4257 -23.504,-9.4257"
         inkscape:connector-curvature="0"
         id="path24"
         style="fill:#000;fill-opacity:1;fill-rule:nonzero;stroke:none" /></g></g></svg>
